<?xml version="1.0" ?><svg xmlns="http://www.w3.org/2000/svg" id="Layer_1" data-name="Layer 1" viewBox="0 0 128 128"><defs><style>
      .cls-1 {
        fill-rule: evenodd;
      }

      .cls-1, .cls-2 {
        stroke-width: 0px;
      }
    </style></defs><path id="path" class="cls-2" d="m52.5,57.05h5.43v16.64h-5.43c-4.59,0-8.32-3.73-8.32-8.32s3.73-8.32,8.32-8.32Z"/><path id="path-2" data-name="path" class="cls-1" d="m16,64c0-26.51,21.49-48,48-48s48,21.49,48,48-21.5,48-48,48-48-21.5-48-48Zm63.66-25.65c0,2.11-1.71,3.83-3.83,3.83s-3.83-1.72-3.83-3.83,1.71-3.84,3.83-3.84,3.83,1.72,3.83,3.84Zm-14.79,0c0-1.92-1.55-3.47-3.47-3.47s-3.46,1.55-3.46,3.47v11.76h-5.44c-8.42,0-15.25,6.83-15.25,15.26s6.83,15.25,15.25,15.25h8.9c1.92,0,3.47-1.55,3.47-3.47v-38.8Zm14.43,12.45c0-1.92-1.56-3.47-3.47-3.47s-3.47,1.55-3.47,3.47v29.49c0,2.35-.52,3.84-1.19,4.73-.62.84-1.62,1.52-3.4,1.79-1.79.27-3.04-.08-3.8-.42-.39-.17-.66-.35-.82-.47-1.35-1.3-3.63-1.4-4.98-.07-1.36,1.34-1.38,3.53-.03,4.9l2.38-2.35-2.38,2.35c.15.13.66.58.91.77.5.36,1.2.8,2.1,1.21,1.83.81,4.42,1.43,7.67.93,3.25-.49,6.02-1.96,7.91-4.49,1.84-2.47,2.57-5.58,2.57-8.88v-29.49Z"/></svg>