<svg width="183" height="56" viewBox="0 0 183 56" fill="none" xmlns="http://www.w3.org/2000/svg">
<path d="M73.18 36H69.88V21.26H73.18V27.112H76.854L80.77 21.26H84.73L79.604 28.52L84.664 36H80.704L76.898 30.324H73.18V36ZM91.4156 36.22C89.5089 36.22 87.9983 35.7433 86.8836 34.79C85.7836 33.822 85.2336 32.392 85.2336 30.5C85.2336 28.7547 85.7909 27.3613 86.9056 26.32C88.0349 25.2787 89.5163 24.758 91.3496 24.758C93.1829 24.758 94.6423 25.2273 95.7276 26.166C96.8129 27.09 97.3556 28.4027 97.3556 30.104C97.3556 30.3093 97.3263 30.6613 97.2676 31.16H88.2916C88.3356 32.0253 88.5849 32.6487 89.0396 33.03C89.4943 33.3967 90.2496 33.58 91.3056 33.58C92.2589 33.58 92.9336 33.4627 93.3296 33.228C93.7403 32.9787 93.9456 32.612 93.9456 32.128V31.908H97.2456V32.15C97.2456 33.3527 96.7103 34.3353 95.6396 35.098C94.5689 35.846 93.1609 36.22 91.4156 36.22ZM93.4176 27.838C92.9629 27.5007 92.2516 27.332 91.2836 27.332C90.3156 27.332 89.5969 27.5007 89.1276 27.838C88.6729 28.1753 88.4089 28.7033 88.3356 29.422H94.1876C94.1436 28.6887 93.8869 28.1607 93.4176 27.838ZM100.867 39.74H99.063V36.748H101.769C102.473 36.748 102.935 36.5133 103.155 36.044L97.765 24.978H101.505L103.837 30.016L104.761 32.612H104.981L105.861 29.994L107.951 24.978H111.625L106.169 36.792C105.656 37.9213 105.003 38.6913 104.211 39.102C103.419 39.5273 102.304 39.74 100.867 39.74ZM122.502 36.22C120.258 36.22 118.534 35.78 117.332 34.9C116.129 34.02 115.528 32.7293 115.528 31.028V30.896H118.828V31.292C118.828 31.996 119.077 32.4947 119.576 32.788C120.074 33.0667 121.05 33.206 122.502 33.206C123.778 33.206 124.636 33.1033 125.076 32.898C125.53 32.6927 125.758 32.3333 125.758 31.82C125.758 31.38 125.611 31.0573 125.318 30.852C125.024 30.632 124.496 30.456 123.734 30.324L119.598 29.73C116.796 29.29 115.396 27.9113 115.396 25.594C115.396 24.3327 115.946 23.262 117.046 22.382C118.16 21.4873 119.862 21.04 122.15 21.04C124.35 21.04 126.007 21.502 127.122 22.426C128.236 23.35 128.794 24.6187 128.794 26.232V26.364H125.472V26.056C125.472 25.3227 125.215 24.8093 124.702 24.516C124.203 24.208 123.242 24.054 121.82 24.054C120.661 24.054 119.854 24.1713 119.4 24.406C118.945 24.626 118.718 24.978 118.718 25.462C118.718 25.8873 118.842 26.1953 119.092 26.386C119.356 26.5767 119.803 26.7307 120.434 26.848L124.57 27.508C127.562 27.992 129.058 29.378 129.058 31.666C129.058 32.9713 128.515 34.0567 127.43 34.922C126.344 35.7873 124.702 36.22 122.502 36.22ZM138.167 36H135.439C132.682 36 131.303 34.6727 131.303 32.018V27.706H129.565V24.978H131.303V22.844H134.603V24.978H138.167V27.706H134.603V31.644C134.603 32.1867 134.713 32.5533 134.933 32.744C135.168 32.9347 135.586 33.03 136.187 33.03H138.167V36ZM149.831 34.658C148.687 35.6993 147.169 36.22 145.277 36.22C143.385 36.22 141.86 35.6993 140.701 34.658C139.557 33.6167 138.985 32.2307 138.985 30.5C138.985 28.7547 139.557 27.3613 140.701 26.32C141.86 25.2787 143.385 24.758 145.277 24.758C147.169 24.758 148.687 25.2787 149.831 26.32C150.99 27.3613 151.569 28.7547 151.569 30.5C151.569 32.2307 150.99 33.6167 149.831 34.658ZM142.945 32.634C143.4 33.074 144.177 33.294 145.277 33.294C146.377 33.294 147.155 33.074 147.609 32.634C148.064 32.194 148.291 31.4827 148.291 30.5C148.291 29.5173 148.057 28.7987 147.587 28.344C147.133 27.8893 146.363 27.662 145.277 27.662C144.177 27.662 143.4 27.8893 142.945 28.344C142.491 28.784 142.263 29.5027 142.263 30.5C142.263 31.4827 142.491 32.194 142.945 32.634ZM156.217 36H152.917V24.978H155.975V28.366H156.173C156.334 27.3393 156.782 26.4813 157.515 25.792C158.263 25.1027 159.312 24.758 160.661 24.758C162.113 24.758 163.213 25.1687 163.961 25.99C164.724 26.7967 165.105 27.8453 165.105 29.136V36H161.805V30.236C161.805 29.3413 161.592 28.7033 161.167 28.322C160.756 27.926 160.052 27.728 159.055 27.728C158.028 27.728 157.295 27.9407 156.855 28.366C156.43 28.7913 156.217 29.4807 156.217 30.434V36ZM172.627 36.22C170.72 36.22 169.209 35.7433 168.095 34.79C166.995 33.822 166.445 32.392 166.445 30.5C166.445 28.7547 167.002 27.3613 168.117 26.32C169.246 25.2787 170.727 24.758 172.561 24.758C174.394 24.758 175.853 25.2273 176.939 26.166C178.024 27.09 178.567 28.4027 178.567 30.104C178.567 30.3093 178.537 30.6613 178.479 31.16H169.503C169.547 32.0253 169.796 32.6487 170.251 33.03C170.705 33.3967 171.461 33.58 172.517 33.58C173.47 33.58 174.145 33.4627 174.541 33.228C174.951 32.9787 175.157 32.612 175.157 32.128V31.908H178.457V32.15C178.457 33.3527 177.921 34.3353 176.851 35.098C175.78 35.846 174.372 36.22 172.627 36.22ZM174.629 27.838C174.174 27.5007 173.463 27.332 172.495 27.332C171.527 27.332 170.808 27.5007 170.339 27.838C169.884 28.1753 169.62 28.7033 169.547 29.422H175.399C175.355 28.6887 175.098 28.1607 174.629 27.838Z" fill="#131415"/>
<rect width="56" height="56" rx="15" fill="#266DF0"/>
<path fill-rule="evenodd" clip-rule="evenodd" d="M15.4624 16.7998C15.477 16.7998 15.4895 16.8073 15.5042 16.8084H28.3536C28.4709 16.8084 28.5847 16.8488 28.6768 16.923C28.7689 16.9973 28.8339 17.101 28.8613 17.2177L32.1688 31.0916V17.3427C32.1679 17.2713 32.1811 17.2004 32.2075 17.1342C32.2339 17.0681 32.273 17.0081 32.3224 16.9576C32.3719 16.9072 32.4308 16.8675 32.4955 16.8407C32.5603 16.814 32.6296 16.8008 32.6994 16.8019C32.768 16.8028 32.8358 16.8174 32.8989 16.8451C32.9619 16.8727 33.019 16.9128 33.067 16.963C33.1149 17.0132 33.1527 17.0726 33.1782 17.1377C33.2037 17.2029 33.2163 17.2725 33.2155 17.3427V32.8923C33.9919 33.009 34.7109 33.3788 35.2655 33.9468C35.8201 34.5147 36.1809 35.2506 36.2942 36.045H43.1503C43.8565 36.0343 43.8565 37.1244 43.1503 37.1137H36.2973C36.0403 38.9198 34.5287 40.3198 32.6932 40.3198C31.7241 40.3181 30.7952 39.9238 30.1096 39.2233C29.424 38.5227 29.0375 37.5728 29.0347 36.5815C29.0347 35.1975 29.7859 33.9974 30.8838 33.3497L26.4701 28.8462L26.0658 29.2587C26.0176 29.3098 25.96 29.3505 25.8962 29.3785C25.8325 29.4065 25.764 29.4212 25.6946 29.4218C25.6253 29.4225 25.5565 29.4089 25.4923 29.3821C25.4281 29.3552 25.3698 29.3155 25.3207 29.2654C25.2717 29.2152 25.2329 29.1555 25.2066 29.0899C25.1804 29.0242 25.1672 28.9538 25.1678 28.8829C25.1684 28.8119 25.1828 28.7418 25.2101 28.6766C25.2375 28.6114 25.2773 28.5525 25.3272 28.5032L26.8911 26.9044C26.9395 26.8533 26.9975 26.8125 27.0615 26.7846C27.1256 26.7568 27.1944 26.7422 27.264 26.7419C27.3684 26.7413 27.4706 26.7727 27.5574 26.832C27.6442 26.8914 27.7116 26.9759 27.751 27.0749C27.7903 27.1738 27.7998 27.2825 27.7782 27.387C27.7566 27.4915 27.7048 27.5869 27.6297 27.661L27.2087 28.0906L31.3978 32.3687L28.198 18.9479H18.588V30.5048L19.6348 31.7552V26.9632H20.6774V31.7702H25.3784V32.8389H20.6753L21.722 33.9076H28.7945C28.2878 34.6739 27.9901 35.5961 27.9901 36.5815C27.9901 36.7942 28.0245 36.9983 28.0517 37.2035L20.623 37.1265C20.6439 36.9448 20.6774 36.7674 20.6774 36.5815C20.6774 33.9439 18.5546 31.7723 15.9763 31.7723C15.617 31.7723 15.2691 31.8236 14.9317 31.9038V17.3801C14.9264 17.2999 14.9389 17.2196 14.9682 17.145L14.985 17.1087C15.0064 17.064 15.0338 17.0226 15.0664 16.9858C15.0841 16.9654 15.1033 16.9464 15.1239 16.9291C15.1492 16.9077 15.1765 16.8887 15.2054 16.8725C15.2439 16.8514 15.285 16.8356 15.3276 16.8255C15.3483 16.8206 15.3692 16.817 15.3903 16.8148C15.4154 16.8116 15.4373 16.7998 15.4624 16.7998ZM42.6155 27.4954V34.9763H37.0996C36.8601 34.3002 36.4765 33.6872 35.9765 33.1818C35.4765 32.6764 34.8727 32.2913 34.209 32.0545V27.4954H36.3558V30.1607C36.3558 30.5561 36.7601 30.8158 37.1069 30.6427L37.6293 30.3798L38.441 29.9662L39.2516 30.3798L39.774 30.6427C39.8538 30.6827 39.9422 30.7012 40.0309 30.6965C40.1197 30.6918 40.2058 30.664 40.2811 30.6157C40.3564 30.5675 40.4184 30.5003 40.4613 30.4207C40.5042 30.3411 40.5265 30.2516 40.5261 30.1607V27.4954H42.6155ZM39.4898 27.4954V29.3026L38.6781 28.8858C38.5308 28.811 38.3574 28.811 38.2101 28.8858L37.4005 29.3026V27.4954H39.4898ZM15.9763 32.8389C16.9459 32.8411 17.8752 33.2362 18.5608 33.9376C19.2464 34.6389 19.6326 35.5896 19.6348 36.5815C19.632 37.5728 19.2456 38.5227 18.5599 39.2233C17.8743 39.9238 16.9454 40.3181 15.9763 40.3198C13.9633 40.3198 12.32 38.6409 12.32 36.5815C12.3222 35.59 12.7081 34.6396 13.3932 33.9383C14.0784 33.237 15.0071 32.8417 15.9763 32.8389ZM32.6932 33.9097C32.3498 33.9086 32.0096 33.9769 31.6921 34.1108C31.3746 34.2446 31.0862 34.4413 30.8432 34.6896C30.6003 34.9379 30.4078 35.2329 30.2767 35.5576C30.1456 35.8822 30.0786 36.2302 30.0794 36.5815C30.0794 38.0638 31.2453 39.2532 32.6932 39.2532C33.0364 39.2544 33.3764 39.186 33.6936 39.0521C34.0109 38.9182 34.2991 38.7214 34.5416 38.4731C34.7842 38.2247 34.9763 37.9297 35.107 37.6051C35.2376 37.2804 35.3042 36.9326 35.3028 36.5815C35.3042 36.2304 35.2376 35.8825 35.107 35.5579C34.9763 35.2332 34.7842 34.9382 34.5416 34.6899C34.2991 34.4415 34.0109 34.2447 33.6936 34.1108C33.3764 33.9769 33.0364 33.9086 32.6932 33.9097ZM15.9763 33.9097C14.5284 33.9097 13.3647 35.0992 13.3647 36.5815C13.3647 38.0638 14.5284 39.2532 15.9763 39.2532C16.3196 39.2544 16.6597 39.186 16.9771 39.0522C17.2945 38.9183 17.5828 38.7215 17.8255 38.4732C18.0683 38.2249 18.2606 37.9299 18.3915 37.6053C18.5223 37.2806 18.5891 36.9327 18.588 36.5815C18.588 35.0992 17.4253 33.9097 15.9763 33.9097ZM15.9763 34.9763C16.8361 34.9763 17.5434 35.6998 17.5434 36.5793C17.5434 37.4578 16.8361 38.1824 15.9763 38.1824C15.1176 38.1824 14.4093 37.4578 14.4093 36.5793C14.4093 35.6998 15.1176 34.9763 15.9763 34.9763ZM32.6932 34.9784C33.5529 34.9784 34.2581 35.7019 34.2581 36.5815C34.2581 37.46 33.5529 38.1845 32.6932 38.1845C32.2781 38.1823 31.8805 38.0128 31.5868 37.7127C31.2931 37.4126 31.1268 37.0061 31.1241 36.5815C31.1241 35.7019 31.8345 34.9784 32.6932 34.9784ZM32.6932 36.0471C32.3986 36.0471 32.1688 36.2801 32.1688 36.5815C32.1688 36.8829 32.3986 37.1158 32.6932 37.1158C32.762 37.1169 32.8302 37.1037 32.8939 37.0772C32.9576 37.0507 33.0155 37.0113 33.064 36.9615C33.1125 36.9116 33.1508 36.8523 33.1765 36.787C33.2021 36.7217 33.2147 36.6518 33.2134 36.5815C33.2134 36.2801 32.9878 36.0471 32.6932 36.0471Z" fill="white"/>
</svg>
