<svg width="163" height="50" viewBox="0 0 163 50" fill="none" xmlns="http://www.w3.org/2000/svg">
<path fill-rule="evenodd" clip-rule="evenodd" d="M43.2619 16.001C43.2862 15.4964 43.1866 14.9934 42.9716 14.5356C42.7566 14.0778 42.4328 13.6789 42.0279 13.3734H42.0338L41.9808 13.3401C41.8794 13.2661 41.7737 13.1982 41.6642 13.1369C41.6642 13.1369 37.4521 10.4008 37.4659 10.4008C37.4079 10.3314 29.1863 5.41722 25.0834 3.06223C24.4713 2.70398 23.771 2.52177 23.0608 2.53592C22.3506 2.55007 21.6583 2.76002 21.0611 3.14236C15.5237 6.37355 9.99478 9.62135 4.47441 12.8858C4.03456 13.1156 3.66638 13.4608 3.40976 13.8837C3.15313 14.3067 3.01785 14.7914 3.01856 15.2853C3.01927 15.7792 3.15594 16.2635 3.41378 16.6858C3.67161 17.108 4.04078 17.4521 4.48129 17.6807C9.95054 20.9074 15.4309 24.1154 20.9225 27.3049C21.5997 27.7321 22.3866 27.9562 23.1887 27.9503C23.9909 27.9445 24.7743 27.7088 25.4452 27.2717C27.3231 26.1642 29.2043 25.0639 31.0888 23.9708C33.1761 22.7533 35.2645 21.5386 37.5131 20.2302C37.5131 24.7946 37.5062 29.1381 37.5219 33.4826C37.5219 33.938 37.2909 34.1207 36.9399 34.324C32.5285 36.8939 28.1244 39.4756 23.7275 42.0691C23.5523 42.1903 23.3426 42.2525 23.1292 42.2465C22.9157 42.2406 22.7099 42.1667 22.5418 42.0358C18.2006 39.4717 13.8483 36.9259 9.48482 34.3982C9.26717 34.2945 9.0877 34.1257 8.97165 33.9153C8.8556 33.705 8.80882 33.4638 8.83788 33.2256C8.86344 30.2775 8.83198 27.3294 8.86541 24.3812C8.90103 24.1102 8.84776 23.835 8.7135 23.5965C8.57924 23.3579 8.37115 23.1688 8.12013 23.0572C7.04549 22.4806 6.02198 21.821 4.96011 21.2347C4.35298 20.8691 3.72386 20.5408 3.07629 20.2517C3.07629 25.2578 3.06056 30.1905 3.08612 35.1243C3.08224 35.8286 3.27265 36.5206 3.63667 37.1249C4.00068 37.7293 4.52438 38.2229 5.15086 38.5522C10.3854 41.6238 15.6243 44.6892 20.8674 47.7484C21.5529 48.1891 22.3525 48.4222 23.169 48.4195C23.9854 48.4167 24.7834 48.1781 25.4658 47.7327C30.6172 44.7035 35.7748 41.684 40.9386 38.6744C41.6612 38.3023 42.2608 37.7314 42.6658 37.0298C43.0708 36.3282 43.2641 35.5256 43.2225 34.7178C43.1901 28.4766 43.1026 22.2354 43.2619 16.001ZM23.8839 21.5973C23.682 21.7553 23.4336 21.8435 23.1766 21.8485C22.9197 21.8534 22.6681 21.7748 22.4602 21.6246C20.6354 20.4931 18.7771 19.4152 16.9267 18.3237C15.2484 17.3319 13.5641 16.3479 11.8386 15.3346C11.9196 15.2433 12.0087 15.1595 12.1051 15.0844C15.6171 13.0128 19.136 10.95 22.6391 8.86371C22.8008 8.75258 22.9942 8.696 23.1907 8.70234C23.3871 8.70867 23.5764 8.77757 23.7305 8.89889C25.3272 9.84675 26.9285 10.7871 28.5344 11.72L34.4828 15.4205C30.963 17.5039 27.4037 19.5217 23.8839 21.5973Z" fill="#2C4BFF"/>
<path d="M34.4081 30.3019L33.6756 30.7465L24.1169 36.544C23.9655 36.6368 23.7992 36.7029 23.6253 36.7395C23.4082 36.7997 23.1811 36.8161 22.9575 36.7875C22.7339 36.759 22.5183 36.6862 22.3235 36.5734L21.3069 35.9783L11.6115 30.3028C11.2203 30.0759 10.9359 29.7039 10.8208 29.2686C10.7056 28.8332 10.7692 28.3703 10.9975 27.9816C11.2258 27.5928 11.6001 27.3101 12.0381 27.1957C12.4761 27.0812 12.9419 27.1444 13.3331 27.3713L14.3497 27.9664L15.97 28.9152L17.5904 29.8641L19.2117 30.8129L20.833 31.7617C21.2076 31.9816 21.5714 32.2191 21.947 32.4379C22.285 32.6731 22.678 32.8185 23.0885 32.8601C23.4712 32.8464 23.8438 32.7342 24.17 32.5347C24.3666 32.4282 24.5524 32.308 24.7432 32.1927L25.6074 31.6679L27.3261 30.6253L29.0447 29.5826L30.7722 28.5351L32.4909 27.4925L32.6924 27.3703C32.8861 27.2579 33.1001 27.1845 33.3224 27.1543C33.5446 27.1241 33.7706 27.1377 33.9875 27.1943C34.2044 27.251 34.408 27.3495 34.5866 27.4843C34.7653 27.6191 34.9154 27.7876 35.0285 27.9801C35.1416 28.1726 35.2155 28.3853 35.2458 28.6062C35.2762 28.827 35.2625 29.0517 35.2056 29.2673C35.1486 29.4829 35.0495 29.6852 34.9138 29.8627C34.7782 30.0402 34.6087 30.1895 34.415 30.3019H34.4081Z" fill="#2C4BFF"/>
<path fill-rule="evenodd" clip-rule="evenodd" d="M42.9605 35.4081C42.9607 35.9843 42.789 36.5475 42.4671 37.0267C42.1451 37.5059 41.6874 37.8794 41.1519 38.1C40.6163 38.3206 40.027 38.3784 39.4584 38.2662C38.8898 38.1539 38.3674 37.8765 37.9574 37.4692C37.5474 37.0618 37.2682 36.5428 37.155 35.9777C37.0418 35.4126 37.0999 34.8269 37.3217 34.2945C37.5435 33.7622 37.9191 33.3072 38.4011 32.9871C38.8831 32.667 39.4499 32.4961 40.0296 32.4961C40.8068 32.4961 41.5521 32.8029 42.1017 33.3489C42.6513 33.895 42.9603 34.6357 42.9605 35.4081V35.4081Z" fill="#2C4BFF"/>
<path d="M69.9278 35.4766L68.8358 32.1726H61.7798L60.6878 35.4766H55.5918L62.4238 15.7646H68.2478L75.0518 35.4766H69.9278ZM62.9838 28.5326H67.6318L65.3078 21.5326L62.9838 28.5326ZM87.9848 30.5486C88.6754 29.8766 89.0208 28.9246 89.0208 27.6926C89.0208 26.4606 88.6754 25.5086 87.9848 24.8366C87.2941 24.1646 86.5008 23.8286 85.6048 23.8286C84.7088 23.8286 83.9154 24.1646 83.2248 24.8366C82.5341 25.4899 82.1888 26.4326 82.1888 27.6646C82.1888 28.8966 82.5341 29.8486 83.2248 30.5206C83.9154 31.1926 84.7088 31.5286 85.6048 31.5286C86.5008 31.5286 87.2941 31.2019 87.9848 30.5486ZM82.1888 21.8966C83.2528 20.4219 84.7741 19.6846 86.7528 19.6846C88.7501 19.6846 90.4394 20.4406 91.8208 21.9526C93.2021 23.4459 93.8928 25.3592 93.8928 27.6926C93.8928 30.0259 93.2021 31.9392 91.8208 33.4326C90.4394 34.9259 88.7688 35.6726 86.8088 35.6726C84.8488 35.6726 83.3088 34.8512 82.1888 33.2086V42.9246H77.4008V19.8526H82.1888V21.8966ZM101.32 18.0886C100.778 18.6299 100.116 18.9006 99.3316 18.9006C98.5476 18.9006 97.8849 18.6299 97.3436 18.0886C96.8022 17.5472 96.5316 16.8846 96.5316 16.1006C96.5316 15.2979 96.8022 14.6259 97.3436 14.0846C97.8849 13.5432 98.5476 13.2726 99.3316 13.2726C100.116 13.2726 100.778 13.5432 101.32 14.0846C101.861 14.6259 102.132 15.2979 102.132 16.1006C102.132 16.8846 101.861 17.5472 101.32 18.0886ZM96.9516 35.4766V19.8526H101.74V35.4766H96.9516ZM110.736 19.8526V22.1486C111.725 20.5059 113.302 19.6846 115.468 19.6846C116.625 19.6846 117.652 19.9459 118.548 20.4686C119.462 20.9912 120.172 21.7379 120.676 22.7086C121.254 21.7939 122.001 21.0659 122.916 20.5246C123.849 19.9646 124.885 19.6846 126.024 19.6846C127.928 19.6846 129.44 20.2726 130.56 21.4486C131.68 22.6246 132.24 24.2579 132.24 26.3486V35.4766H127.48V26.9926C127.48 25.9846 127.209 25.2099 126.668 24.6686C126.145 24.1086 125.417 23.8286 124.484 23.8286C123.55 23.8286 122.813 24.1086 122.272 24.6686C121.749 25.2099 121.488 25.9846 121.488 26.9926V35.4766H116.728V26.9926C116.728 25.9846 116.457 25.2099 115.916 24.6686C115.393 24.1086 114.665 23.8286 113.732 23.8286C112.798 23.8286 112.061 24.1086 111.52 24.6686C110.997 25.2099 110.736 25.9846 110.736 26.9926V35.4766H105.948V19.8526H110.736ZM140.667 18.0886C140.126 18.6299 139.463 18.9006 138.679 18.9006C137.895 18.9006 137.233 18.6299 136.691 18.0886C136.15 17.5472 135.879 16.8846 135.879 16.1006C135.879 15.2979 136.15 14.6259 136.691 14.0846C137.233 13.5432 137.895 13.2726 138.679 13.2726C139.463 13.2726 140.126 13.5432 140.667 14.0846C141.209 14.6259 141.479 15.2979 141.479 16.1006C141.479 16.8846 141.209 17.5472 140.667 18.0886ZM136.299 35.4766V19.8526H141.087V35.4766H136.299ZM154.675 30.5766C155.31 29.9046 155.627 28.9339 155.627 27.6646C155.627 26.3952 155.301 25.4339 154.647 24.7806C153.994 24.1086 153.219 23.7726 152.323 23.7726C151.427 23.7726 150.653 24.1086 149.999 24.7806C149.365 25.4339 149.047 26.3952 149.047 27.6646C149.047 28.9339 149.374 29.9046 150.027 30.5766C150.699 31.2486 151.483 31.5846 152.379 31.5846C153.275 31.5846 154.041 31.2486 154.675 30.5766ZM146.527 33.4606C144.959 31.9859 144.175 30.0446 144.175 27.6366C144.175 25.2286 144.959 23.3059 146.527 21.8686C148.095 20.4126 150.037 19.6846 152.351 19.6846C154.666 19.6846 156.598 20.4126 158.147 21.8686C159.715 23.3059 160.499 25.2286 160.499 27.6366C160.499 30.0446 159.725 31.9859 158.175 33.4606C156.626 34.9352 154.694 35.6726 152.379 35.6726C150.065 35.6726 148.114 34.9352 146.527 33.4606Z" fill="#252525"/>
</svg>
